# xmcd
#
# Track frame offsets: 
#        150
#        22225
#        49532
#        68345
#        100917
#        113032
#        136652
#        180102
#        186587
#        206162
#        228337
#        234287
#        248737
#        272675
#        288412
#
# Disc length: 4173 seconds
#
# Revision: 3
# Processed by: cddbd v1.5.2PL0 Copyright (c) Steve Scherf et al.
# Submitted via: ExactAudioCopyFreeDBPlugin 1.0
#
DISCID=c8104b0f
DTITLE=Johann Sebastian Bach (1685-1750) - Leonhardt-Consort, Gustave 
DTITLE=Leonhardt Concertus Musicus Wien
DYEAR=1900
DGENRE=
TTITLE0=Herz und Mund Tat und Leben BWV 147
TTITLE1=Weinen, Klagen, Sorgen, Zagen BWV 12
TTITLE2=Der Himmel lacht, die Erde jubilieret BWV 31
TTITLE3=Wachet auf, ruft uns die Stimme BWV 140
TTITLE4=Jesus bleibet meine Freude BWV 147
TTITLE5=Ein feste Burg ist unser Gott BWV 80
TTITLE6=Wie Schon leuchtet der Morgenstern BWV 1
TTITLE7=Sei Lob und Preis mit Ehren BWV 29
TTITLE8=Christ lag in Todes Banden BWV 4
TTITLE9=Sie werden aus Saba alle kommen BWV 65
TTITLE10=Lobe Den Herrn, meine Seele BWV 143
TTITLE11=Halt im Gedächtnis Jesum Christ BWV 67
TTITLE12=Aus der Tiefe rufe ich, Herr, zu dir BWV 131
TTITLE13=Lobe den Herren BWV 137
TTITLE14=Nun danket alle Gott BWV 192
EXTD=
EXTT0=
EXTT1=
EXTT2=
EXTT3=
EXTT4=
EXTT5=
EXTT6=
EXTT7=
EXTT8=
EXTT9=
EXTT10=
EXTT11=
EXTT12=
EXTT13=
EXTT14=
PLAYORDER=
